<svg version="1.1" xmlns="http://www.w3.org/2000/svg" width="600" height="600"><defs><clipPath id="WBtKTMwvDIJp"><path fill="none" stroke="none" d="M 0.5 0.5 L 600.5 0.5 L 600.5 600.5 L 0.5 600.5 L 0.5 0.5 Z M 52.5 27.5 L 595.5 27.5 L 595.5 551.5 L 52.5 551.5 L 52.5 27.5 Z" clip-rule="evenodd"/></clipPath><clipPath id="mzRzudgALyHE"><path fill="none" stroke="none" d="M 52.5 27.5 L 595.5 27.5 L 595.5 551.5 L 52.5 551.5 L 52.5 27.5 Z"/></clipPath><clipPath id="MipzywGpZgLE"><path fill="none" stroke="none" d="M 52.5 27.5 L 595.5 27.5 L 595.5 551.5 L 52.5 551.5 L 52.5 27.5 Z"/></clipPath><clipPath id="rDDoVFqNTZio"><path fill="none" stroke="none" d="M 52.5 27.5 L 595.5 27.5 L 595.5 551.5 L 52.5 551.5 L 52.5 27.5 Z"/></clipPath><clipPath id="BvhyTNUvikEU"><path fill="none" stroke="none" d="M 52.5 27.5 L 595.5 27.5 L 595.5 551.5 L 52.5 551.5 L 52.5 27.5 Z"/></clipPath><clipPath id="zWcClVOEVwEG"><path fill="none" stroke="none" d="M 52.5 27.5 L 595.5 27.5 L 595.5 551.5 L 52.5 551.5 L 52.5 27.5 Z"/></clipPath><clipPath id="TvrFGsKwKCDa"><path fill="none" stroke="none" d="M 52.5 27.5 L 595.5 27.5 L 595.5 551.5 L 52.5 551.5 L 52.5 27.5 Z"/></clipPath></defs><path fill="rgb(255,255,255)" stroke="none" paint-order="stroke" d="M 0.5 0.5 L 600.5 0.5 L 600.5 600.5 L 0.5 600.5 L 0.5 0.5 Z" fill-opacity="1" clip-path="url(#WBtKTMwvDIJp)"/><path fill="rgb(255,255,255)" stroke="none" paint-order="stroke" d="M 52.5 27.5 L 595.5 27.5 L 595.5 551.5 L 52.5 551.5 L 52.5 27.5 Z" fill-opacity="1"/><path fill="none" stroke="rgb(229,229,229)" paint-order="fill" d="M 52.5 27.5 L 595.5 27.5 L 595.5 551.5 L 52.5 551.5 L 52.5 27.5 Z" stroke-opacity="1" stroke-linejoin="bevel" stroke-miterlimit="10"/><path fill="none" stroke="rgb(229,229,229)" paint-order="fill" d="M 52.5 451.5 L 595.5 451.5 M 52.5 351.5 L 595.5 351.5 M 52.5 252.5 L 595.5 252.5 M 52.5 152.5 L 595.5 152.5 M 52.5 52.5 L 595.5 52.5" stroke-opacity="1" stroke-linejoin="bevel" stroke-miterlimit="10" clip-path="url(#MipzywGpZgLE)"/><path fill="rgb(201,217,211)" stroke="rgb(201,217,211)" paint-order="fill" d="M 95.69317626953125 102.10762023925781 L 120.375 102.10762023925781 L 120.375 551.5 L 95.69317626953125 551.5 L 95.69317626953125 102.10762023925781 Z" fill-opacity="1" clip-path="url(#rDDoVFqNTZio)" stroke-opacity="1" stroke-linejoin="bevel" stroke-miterlimit="10"/><path fill="rgb(201,217,211)" stroke="rgb(201,217,211)" paint-order="fill" d="M 219.10226440429688 551.4500732421875 L 243.78408813476562 551.4500732421875 L 243.78408813476562 551.5 L 219.10226440429688 551.5 L 219.10226440429688 551.4500732421875 Z" fill-opacity="1" clip-path="url(#rDDoVFqNTZio)" stroke-opacity="1" stroke-linejoin="bevel" stroke-miterlimit="10"/><path fill="rgb(201,217,211)" stroke="rgb(201,217,211)" paint-order="fill" d="M 342.5113525390625 551.5 L 367.19317626953125 551.5 L 367.19317626953125 551.5 L 342.5113525390625 551.5 L 342.5113525390625 551.5 Z" fill-opacity="1" clip-path="url(#rDDoVFqNTZio)" stroke-opacity="1" stroke-linejoin="bevel" stroke-miterlimit="10"/><path fill="rgb(201,217,211)" stroke="rgb(201,217,211)" paint-order="fill" d="M 465.9204406738281 551.5 L 490.6022644042969 551.5 L 490.6022644042969 551.5 L 465.9204406738281 551.5 L 465.9204406738281 551.5 Z" fill-opacity="1" clip-path="url(#rDDoVFqNTZio)" stroke-opacity="1" stroke-linejoin="bevel" stroke-miterlimit="10"/><path fill="rgb(113,141,191)" stroke="rgb(113,141,191)" paint-order="fill" d="M 126.54545593261719 513.871826171875 L 151.22727966308594 513.871826171875 L 151.22727966308594 551.5 L 126.54545593261719 551.5 L 126.54545593261719 513.871826171875 Z" fill-opacity="1" clip-path="url(#BvhyTNUvikEU)" stroke-opacity="1" stroke-linejoin="bevel" stroke-miterlimit="10"/><path fill="rgb(113,141,191)" stroke="rgb(113,141,191)" paint-order="fill" d="M 249.95452880859375 537.62646484375 L 274.6363525390625 537.62646484375 L 274.6363525390625 551.5 L 249.95452880859375 551.5 L 249.95452880859375 537.62646484375 Z" fill-opacity="1" clip-path="url(#BvhyTNUvikEU)" stroke-opacity="1" stroke-linejoin="bevel" stroke-miterlimit="10"/><path fill="rgb(113,141,191)" stroke="rgb(113,141,191)" paint-order="fill" d="M 373.3636474609375 551.5 L 398.04547119140625 551.5 L 398.04547119140625 551.5 L 373.3636474609375 551.5 L 373.3636474609375 551.5 Z" fill-opacity="1" clip-path="url(#BvhyTNUvikEU)" stroke-opacity="1" stroke-linejoin="bevel" stroke-miterlimit="10"/><path fill="rgb(113,141,191)" stroke="rgb(113,141,191)" paint-order="fill" d="M 496.7727355957031 551.5 L 521.4545288085938 551.5 L 521.4545288085938 551.5 L 496.7727355957031 551.5 L 496.7727355957031 551.5 Z" fill-opacity="1" clip-path="url(#BvhyTNUvikEU)" stroke-opacity="1" stroke-linejoin="bevel" stroke-miterlimit="10"/><path fill="rgb(232,77,96)" stroke="rgb(232,77,96)" paint-order="fill" d="M 157.39772033691406 539.4729614257812 L 182.0795440673828 539.4729614257812 L 182.0795440673828 551.5 L 157.39772033691406 551.5 L 157.39772033691406 539.4729614257812 Z" fill-opacity="1" clip-path="url(#zWcClVOEVwEG)" stroke-opacity="1" stroke-linejoin="bevel" stroke-miterlimit="10"/><path fill="rgb(232,77,96)" stroke="rgb(232,77,96)" paint-order="fill" d="M 280.80682373046875 66.37580871582031 L 305.4886474609375 66.37580871582031 L 305.4886474609375 551.5 L 280.80682373046875 551.5 L 280.80682373046875 66.37580871582031 Z" fill-opacity="1" clip-path="url(#zWcClVOEVwEG)" stroke-opacity="1" stroke-linejoin="bevel" stroke-miterlimit="10"/><path fill="rgb(232,77,96)" stroke="rgb(232,77,96)" paint-order="fill" d="M 404.2159118652344 52.4523811340332 L 428.8977355957031 52.4523811340332 L 428.8977355957031 551.5 L 404.2159118652344 551.5 L 404.2159118652344 52.4523811340332 Z" fill-opacity="1" clip-path="url(#zWcClVOEVwEG)" stroke-opacity="1" stroke-linejoin="bevel" stroke-miterlimit="10"/><path fill="rgb(232,77,96)" stroke="rgb(232,77,96)" paint-order="fill" d="M 527.625 52.4523811340332 L 552.3067626953125 52.4523811340332 L 552.3067626953125 551.5 L 527.625 551.5 L 527.625 52.4523811340332 Z" fill-opacity="1" clip-path="url(#zWcClVOEVwEG)" stroke-opacity="1" stroke-linejoin="bevel" stroke-miterlimit="10"/><path fill="none" stroke="rgb(0,0,0)" paint-order="fill" d="M 52.5 551.5 L 595.5 551.5" stroke-opacity="1" stroke-linejoin="bevel" stroke-miterlimit="10"/><path fill="none" stroke="rgb(0,0,0)" paint-order="fill" d="M 138.5 557.5 L 138.5 549.5 M 262.5 557.5 L 262.5 549.5 M 385.5 557.5 L 385.5 549.5 M 509.5 557.5 L 509.5 549.5" stroke-opacity="1" stroke-linejoin="bevel" stroke-miterlimit="10"/><path fill="none" stroke="rgb(0,0,0)" paint-order="fill" d="" stroke-opacity="1" stroke-linejoin="bevel" stroke-miterlimit="10"/><text fill="rgb(68,68,68)" stroke="none" font-family="helvetica" font-size="11px" font-style="normal" font-weight="normal" text-decoration="normal" x="129.21791076660156" y="572" text-anchor="start" dominant-baseline="alphabetic" transform="matrix(1, 0, 0, 1, 0.5, 0.5)" fill-opacity="1">Gor</text><text fill="none" stroke="rgb(0,0,0)" font-family="helvetica" font-size="11px" font-style="normal" font-weight="normal" text-decoration="normal" x="129.21791076660156" y="572" text-anchor="start" dominant-baseline="alphabetic" transform="matrix(1, 0, 0, 1, 0.5, 0.5)" stroke-opacity="0" stroke-linejoin="bevel" stroke-miterlimit="10">Gor</text><text fill="rgb(68,68,68)" stroke="none" font-family="helvetica" font-size="11px" font-style="normal" font-weight="normal" text-decoration="normal" x="249.26467895507812" y="572" text-anchor="start" dominant-baseline="alphabetic" transform="matrix(1, 0, 0, 1, 0.5, 0.5)" fill-opacity="1">Skral</text><text fill="none" stroke="rgb(0,0,0)" font-family="helvetica" font-size="11px" font-style="normal" font-weight="normal" text-decoration="normal" x="249.26467895507812" y="572" text-anchor="start" dominant-baseline="alphabetic" transform="matrix(1, 0, 0, 1, 0.5, 0.5)" stroke-opacity="0" stroke-linejoin="bevel" stroke-miterlimit="10">Skral</text><text fill="rgb(68,68,68)" stroke="none" font-family="helvetica" font-size="11px" font-style="normal" font-weight="normal" text-decoration="normal" x="364.6278991699219" y="572" text-anchor="start" dominant-baseline="alphabetic" transform="matrix(1, 0, 0, 1, 0.5, 0.5)" fill-opacity="1">Wardrak</text><text fill="none" stroke="rgb(0,0,0)" font-family="helvetica" font-size="11px" font-style="normal" font-weight="normal" text-decoration="normal" x="364.6278991699219" y="572" text-anchor="start" dominant-baseline="alphabetic" transform="matrix(1, 0, 0, 1, 0.5, 0.5)" stroke-opacity="0" stroke-linejoin="bevel" stroke-miterlimit="10">Wardrak</text><text fill="rgb(68,68,68)" stroke="none" font-family="helvetica" font-size="11px" font-style="normal" font-weight="normal" text-decoration="normal" x="498.1239013671875" y="572" text-anchor="start" dominant-baseline="alphabetic" transform="matrix(1, 0, 0, 1, 0.5, 0.5)" fill-opacity="1">Troll</text><text fill="none" stroke="rgb(0,0,0)" font-family="helvetica" font-size="11px" font-style="normal" font-weight="normal" text-decoration="normal" x="498.1239013671875" y="572" text-anchor="start" dominant-baseline="alphabetic" transform="matrix(1, 0, 0, 1, 0.5, 0.5)" stroke-opacity="0" stroke-linejoin="bevel" stroke-miterlimit="10">Troll</text><text fill="rgb(68,68,68)" stroke="none" font-family="helvetica" font-size="13px" font-style="italic" font-weight="normal" text-decoration="normal" x="298.2109375" y="594" text-anchor="start" dominant-baseline="alphabetic" transform="matrix(1, 0, 0, 1, 0.5, 0.5)" fill-opacity="1">Enemies</text><text fill="none" stroke="rgb(0,0,0)" font-family="helvetica" font-size="13px" font-style="italic" font-weight="normal" text-decoration="normal" x="298.2109375" y="594" text-anchor="start" dominant-baseline="alphabetic" transform="matrix(1, 0, 0, 1, 0.5, 0.5)" stroke-opacity="0" stroke-linejoin="bevel" stroke-miterlimit="10">Enemies</text><path fill="none" stroke="rgb(0,0,0)" paint-order="fill" d="M 52.5 551.5 L 52.5 27.5" stroke-opacity="1" stroke-linejoin="bevel" stroke-miterlimit="10"/><path fill="none" stroke="rgb(0,0,0)" paint-order="fill" d="M 46.5 551.5 L 54.5 551.5 M 46.5 451.5 L 54.5 451.5 M 46.5 351.5 L 54.5 351.5 M 46.5 252.5 L 54.5 252.5 M 46.5 152.5 L 54.5 152.5 M 46.5 52.5 L 54.5 52.5" stroke-opacity="1" stroke-linejoin="bevel" stroke-miterlimit="10"/><path fill="none" stroke="rgb(0,0,0)" paint-order="fill" d="M 48.5 551.5 L 52.5 551.5 M 48.5 531.5 L 52.5 531.5 M 48.5 511.5 L 52.5 511.5 M 48.5 491.5 L 52.5 491.5 M 48.5 471.5 L 52.5 471.5 M 48.5 451.5 L 52.5 451.5 M 48.5 431.5 L 52.5 431.5 M 48.5 411.5 L 52.5 411.5 M 48.5 391.5 L 52.5 391.5 M 48.5 371.5 L 52.5 371.5 M 48.5 351.5 L 52.5 351.5 M 48.5 331.5 L 52.5 331.5 M 48.5 311.5 L 52.5 311.5 M 48.5 291.5 L 52.5 291.5 M 48.5 272.5 L 52.5 272.5 M 48.5 252.5 L 52.5 252.5 M 48.5 232.5 L 52.5 232.5 M 48.5 212.5 L 52.5 212.5 M 48.5 192.5 L 52.5 192.5 M 48.5 172.5 L 52.5 172.5 M 48.5 152.5 L 52.5 152.5 M 48.5 132.5 L 52.5 132.5 M 48.5 112.5 L 52.5 112.5 M 48.5 92.5 L 52.5 92.5 M 48.5 72.5 L 52.5 72.5 M 48.5 52.5 L 52.5 52.5 M 48.5 32.5 L 52.5 32.5" stroke-opacity="1" stroke-linejoin="bevel" stroke-miterlimit="10"/><text fill="rgb(68,68,68)" stroke="none" font-family="helvetica" font-size="11px" font-style="normal" font-weight="normal" text-decoration="normal" x="34.88232421875" y="555" text-anchor="start" dominant-baseline="alphabetic" transform="matrix(1, 0, 0, 1, 0.5, 0.5)" fill-opacity="1">0</text><text fill="none" stroke="rgb(0,0,0)" font-family="helvetica" font-size="11px" font-style="normal" font-weight="normal" text-decoration="normal" x="34.88232421875" y="555" text-anchor="start" dominant-baseline="alphabetic" transform="matrix(1, 0, 0, 1, 0.5, 0.5)" stroke-opacity="0" stroke-linejoin="bevel" stroke-miterlimit="10">0</text><text fill="rgb(68,68,68)" stroke="none" font-family="helvetica" font-size="11px" font-style="normal" font-weight="normal" text-decoration="normal" x="25.70849609375" y="455.19049072265625" text-anchor="start" dominant-baseline="alphabetic" transform="matrix(1, 0, 0, 1, 0.5, 0.5)" fill-opacity="1">0.2</text><text fill="none" stroke="rgb(0,0,0)" font-family="helvetica" font-size="11px" font-style="normal" font-weight="normal" text-decoration="normal" x="25.70849609375" y="455.19049072265625" text-anchor="start" dominant-baseline="alphabetic" transform="matrix(1, 0, 0, 1, 0.5, 0.5)" stroke-opacity="0" stroke-linejoin="bevel" stroke-miterlimit="10">0.2</text><text fill="rgb(68,68,68)" stroke="none" font-family="helvetica" font-size="11px" font-style="normal" font-weight="normal" text-decoration="normal" x="25.70849609375" y="355.3809509277344" text-anchor="start" dominant-baseline="alphabetic" transform="matrix(1, 0, 0, 1, 0.5, 0.5)" fill-opacity="1">0.4</text><text fill="none" stroke="rgb(0,0,0)" font-family="helvetica" font-size="11px" font-style="normal" font-weight="normal" text-decoration="normal" x="25.70849609375" y="355.3809509277344" text-anchor="start" dominant-baseline="alphabetic" transform="matrix(1, 0, 0, 1, 0.5, 0.5)" stroke-opacity="0" stroke-linejoin="bevel" stroke-miterlimit="10">0.4</text><text fill="rgb(68,68,68)" stroke="none" font-family="helvetica" font-size="11px" font-style="normal" font-weight="normal" text-decoration="normal" x="25.70849609375" y="255.57142639160156" text-anchor="start" dominant-baseline="alphabetic" transform="matrix(1, 0, 0, 1, 0.5, 0.5)" fill-opacity="1">0.6</text><text fill="none" stroke="rgb(0,0,0)" font-family="helvetica" font-size="11px" font-style="normal" font-weight="normal" text-decoration="normal" x="25.70849609375" y="255.57142639160156" text-anchor="start" dominant-baseline="alphabetic" transform="matrix(1, 0, 0, 1, 0.5, 0.5)" stroke-opacity="0" stroke-linejoin="bevel" stroke-miterlimit="10">0.6</text><text fill="rgb(68,68,68)" stroke="none" font-family="helvetica" font-size="11px" font-style="normal" font-weight="normal" text-decoration="normal" x="25.70849609375" y="155.76190185546875" text-anchor="start" dominant-baseline="alphabetic" transform="matrix(1, 0, 0, 1, 0.5, 0.5)" fill-opacity="1">0.8</text><text fill="none" stroke="rgb(0,0,0)" font-family="helvetica" font-size="11px" font-style="normal" font-weight="normal" text-decoration="normal" x="25.70849609375" y="155.76190185546875" text-anchor="start" dominant-baseline="alphabetic" transform="matrix(1, 0, 0, 1, 0.5, 0.5)" stroke-opacity="0" stroke-linejoin="bevel" stroke-miterlimit="10">0.8</text><text fill="rgb(68,68,68)" stroke="none" font-family="helvetica" font-size="11px" font-style="normal" font-weight="normal" text-decoration="normal" x="34.88232421875" y="55.9523811340332" text-anchor="start" dominant-baseline="alphabetic" transform="matrix(1, 0, 0, 1, 0.5, 0.5)" fill-opacity="1">1</text><text fill="none" stroke="rgb(0,0,0)" font-family="helvetica" font-size="11px" font-style="normal" font-weight="normal" text-decoration="normal" x="34.88232421875" y="55.9523811340332" text-anchor="start" dominant-baseline="alphabetic" transform="matrix(1, 0, 0, 1, 0.5, 0.5)" stroke-opacity="0" stroke-linejoin="bevel" stroke-miterlimit="10">1</text><text fill="rgb(68,68,68)" stroke="none" font-family="helvetica" font-size="13px" font-style="italic" font-weight="normal" text-decoration="normal" x="-12.6396484375" y="286" text-anchor="start" dominant-baseline="alphabetic" transform="matrix(6.123233995736766e-17, -1, 1, 6.123233995736766e-17, -270.79150390625, 307.20849609375)" fill-opacity="1">Probability</text><text fill="none" stroke="rgb(0,0,0)" font-family="helvetica" font-size="13px" font-style="italic" font-weight="normal" text-decoration="normal" x="-12.6396484375" y="286" text-anchor="start" dominant-baseline="alphabetic" transform="matrix(6.123233995736766e-17, -1, 1, 6.123233995736766e-17, -270.79150390625, 307.20849609375)" stroke-opacity="0" stroke-linejoin="bevel" stroke-miterlimit="10">Probability</text><path fill="rgb(255,255,255)" stroke="rgb(229,229,229)" paint-order="fill" d="M 62.5 37.5 L 358.5 37.5 L 358.5 77.5 L 62.5 77.5 L 62.5 37.5 Z" fill-opacity="0.9490196078431372" clip-path="url(#TvrFGsKwKCDa)" stroke-opacity="0.5019607843137255" stroke-linejoin="bevel" stroke-miterlimit="10"/><path fill="rgb(201,217,211)" stroke="rgb(201,217,211)" paint-order="fill" d="M 74.5 49.5 L 90.5 49.5 L 90.5 65.5 L 74.5 65.5 L 74.5 49.5 Z" fill-opacity="1" clip-path="url(#TvrFGsKwKCDa)" stroke-opacity="1" stroke-linejoin="bevel" stroke-miterlimit="10"/><g clip-path="url(#TvrFGsKwKCDa)"><text fill="rgb(68,68,68)" stroke="none" font-family="helvetica" font-size="13px" font-style="normal" font-weight="normal" text-decoration="normal" x="0" y="4.5" text-anchor="start" dominant-baseline="alphabetic" transform="matrix(1, 0, 0, 1, 97.5, 57.5)" fill-opacity="1">Hero Wins</text></g><g clip-path="url(#TvrFGsKwKCDa)"><text fill="none" stroke="rgb(0,0,0)" font-family="helvetica" font-size="13px" font-style="normal" font-weight="normal" text-decoration="normal" x="0" y="4.5" text-anchor="start" dominant-baseline="alphabetic" transform="matrix(1, 0, 0, 1, 97.5, 57.5)" stroke-opacity="0" stroke-linejoin="bevel" stroke-miterlimit="10">Hero Wins</text></g><path fill="rgb(113,141,191)" stroke="rgb(113,141,191)" paint-order="fill" d="M 163.5 49.5 L 179.5 49.5 L 179.5 65.5 L 163.5 65.5 L 163.5 49.5 Z" fill-opacity="1" clip-path="url(#TvrFGsKwKCDa)" stroke-opacity="1" stroke-linejoin="bevel" stroke-miterlimit="10"/><g clip-path="url(#TvrFGsKwKCDa)"><text fill="rgb(68,68,68)" stroke="none" font-family="helvetica" font-size="13px" font-style="normal" font-weight="normal" text-decoration="normal" x="0" y="4.5" text-anchor="start" dominant-baseline="alphabetic" transform="matrix(1, 0, 0, 1, 186.5, 57.5)" fill-opacity="1">No Winner</text></g><g clip-path="url(#TvrFGsKwKCDa)"><text fill="none" stroke="rgb(0,0,0)" font-family="helvetica" font-size="13px" font-style="normal" font-weight="normal" text-decoration="normal" x="0" y="4.5" text-anchor="start" dominant-baseline="alphabetic" transform="matrix(1, 0, 0, 1, 186.5, 57.5)" stroke-opacity="0" stroke-linejoin="bevel" stroke-miterlimit="10">No Winner</text></g><path fill="rgb(232,77,96)" stroke="rgb(232,77,96)" paint-order="fill" d="M 252.5 49.5 L 268.5 49.5 L 268.5 65.5 L 252.5 65.5 L 252.5 49.5 Z" fill-opacity="1" clip-path="url(#TvrFGsKwKCDa)" stroke-opacity="1" stroke-linejoin="bevel" stroke-miterlimit="10"/><g clip-path="url(#TvrFGsKwKCDa)"><text fill="rgb(68,68,68)" stroke="none" font-family="helvetica" font-size="13px" font-style="normal" font-weight="normal" text-decoration="normal" x="0" y="4.5" text-anchor="start" dominant-baseline="alphabetic" transform="matrix(1, 0, 0, 1, 275.5, 57.5)" fill-opacity="1">Enemy Wins</text></g><g clip-path="url(#TvrFGsKwKCDa)"><text fill="none" stroke="rgb(0,0,0)" font-family="helvetica" font-size="13px" font-style="normal" font-weight="normal" text-decoration="normal" x="0" y="4.5" text-anchor="start" dominant-baseline="alphabetic" transform="matrix(1, 0, 0, 1, 275.5, 57.5)" stroke-opacity="0" stroke-linejoin="bevel" stroke-miterlimit="10">Enemy Wins</text></g><text fill="rgb(68,68,68)" stroke="none" font-family="helvetica" font-size="13px" font-style="normal" font-weight="bold" text-decoration="normal" x="0" y="12" text-anchor="start" dominant-baseline="alphabetic" transform="matrix(1, 0, 0, 1, 52.5, 7.5)" fill-opacity="1">Wizard with Helmet</text><text fill="none" stroke="rgb(0,0,0)" font-family="helvetica" font-size="13px" font-style="normal" font-weight="bold" text-decoration="normal" x="0" y="12" text-anchor="start" dominant-baseline="alphabetic" transform="matrix(1, 0, 0, 1, 52.5, 7.5)" stroke-opacity="0" stroke-miterlimit="10" stroke-dasharray="">Wizard with Helmet</text></svg>